<svg width="16" height="16" fill="none" xmlns="http://www.w3.org/2000/svg"><path fill-rule="evenodd" clip-rule="evenodd" d="M11 3.5a.5.5 0 0 0-.5-.5h-9a.5.5 0 0 0-.5.5v12c0 .28.22.5.5.5h9a.5.5 0 0 0 .5-.5v-12zm-2 2a.5.5 0 0 0-.5-.5h-5a.5.5 0 0 0-.5.5v8c0 .28.22.5.5.5h5a.5.5 0 0 0 .5-.5v-8z" fill="#0085FF"/><path d="M5 .5c0-.28.22-.5.5-.5h9c.28 0 .5.22.5.5v12a.5.5 0 0 1-.5.5h-2a.5.5 0 0 1-.5-.5v-1c0-.28.22-.5.5-.5a.5.5 0 0 0 .5-.5v-8a.5.5 0 0 0-.5-.5h-7a.5.5 0 0 1-.5-.5v-1z" fill="#0085FF"/></svg>