<svg width="40" height="40" fill="none" xmlns="http://www.w3.org/2000/svg"><path fill-rule="evenodd" clip-rule="evenodd" d="M32.07 28.8H25.2c-.59 0-1.07-.47-1.07-1.06V22.4h6.26a.6.6 0 0 0 .6-.5l.42-2.53a.6.6 0 0 0-.6-.7H20.4v9.07a4.8 4.8 0 0 0 4.8 4.8h3.73v2.78c-1.84.7-3.42.95-5.46.95-5.32 0-8.21-2.79-8.4-8-.05-1.56 0-2.67 0-9.6H7.02a.6.6 0 0 0-.59.5l-.42 2.53a.6.6 0 0 0 .59.7h4.73l.01 5.87c.1 3.5 1.21 6.44 3.22 8.47 2.12 2.13 5.2 3.26 8.9 3.26 3.13 0 5.5-.52 8.6-1.96.37-.18.6-.55.6-.97v-7.66a.6.6 0 0 0-.6-.6zM7.85 14.93h7.22v-8l5.33-1.9v9.9h11.24a.6.6 0 0 0 .6-.5l.42-2.53a.6.6 0 0 0-.6-.7h-7.93V.6a.6.6 0 0 0-.8-.57l-11.6 4.11a.6.6 0 0 0-.4.57v6.49H8.27a.6.6 0 0 0-.59.5l-.42 2.53a.6.6 0 0 0 .59.7z" fill="#0085FF"/></svg>